<?xml version="1.0" standalone="no"?>
<!DOCTYPE svg PUBLIC "-//W3C//DTD SVG 20010904//EN"
 "http://www.w3.org/TR/2001/REC-SVG-20010904/DTD/svg10.dtd">
<svg version="1.0" xmlns="http://www.w3.org/2000/svg"
 width="600.000000pt" height="600.000000pt" viewBox="0 0 600.000000 600.000000"
 preserveAspectRatio="xMidYMid meet">

<g transform="translate(0.000000,600.000000) scale(0.100000,-0.100000)"
fill="#000000" stroke="none">
<path d="M2840 5989 c-604 -27 -1188 -246 -1685 -631 -154 -119 -394 -359
-513 -513 -344 -444 -551 -949 -617 -1501 -20 -170 -20 -518 0 -688 81 -680
375 -1287 860 -1771 484 -485 1090 -779 1771 -860 171 -21 517 -21 688 0 681
81 1287 375 1771 860 485 484 779 1091 860 1771 20 170 20 518 0 688 -81 680
-375 1286 -860 1771 -609 609 -1400 913 -2275 874z m565 -293 c600 -98 1104
-353 1521 -770 421 -421 673 -922 771 -1531 26 -158 26 -632 0 -790 -98 -609
-349 -1107 -771 -1531 -417 -418 -918 -671 -1528 -771 -147 -25 -649 -25 -796
0 -610 100 -1108 352 -1528 771 -419 420 -671 918 -771 1528 -25 147 -25 649
0 796 42 255 103 469 197 689 266 619 794 1147 1413 1413 264 113 501 174 827
214 88 10 569 -3 665 -18z"/>
<path d="M2217 5236 c-60 -16 -115 -60 -144 -116 -22 -41 -23 -53 -23 -257 l0
-213 225 0 225 0 0 201 c0 122 -5 217 -11 240 -33 108 -158 175 -272 145z"/>
<path d="M2990 5240 c-82 -15 -159 -87 -179 -165 -6 -24 -11 -129 -11 -234 l0
-191 230 0 230 0 0 191 c0 105 -5 210 -11 234 -27 108 -149 186 -259 165z"/>
<path d="M3727 5236 c-59 -16 -114 -59 -141 -112 -19 -35 -21 -59 -24 -256
l-3 -218 225 0 226 0 0 212 c0 194 -2 215 -21 255 -47 96 -157 147 -262 119z"/>
<path d="M1690 4399 c-29 -12 -67 -45 -83 -74 -9 -14 -14 -157 -17 -478 l-5
-457 173 0 172 0 0 269 c0 262 1 269 23 301 12 18 35 43 50 54 27 20 42 21
318 24 l289 3 0 184 0 185 -447 -1 c-273 0 -458 -4 -473 -10z"/>
<path d="M2770 4204 c0 -232 -6 -257 -69 -300 l-36 -24 -287 0 -287 0 -3 -274
c-3 -260 -4 -276 -24 -303 -11 -15 -36 -38 -54 -50 -31 -22 -42 -23 -229 -23
l-196 0 0 -265 0 -265 613 0 c502 0 618 3 645 14 41 18 242 222 256 259 6 16
11 76 11 135 0 151 11 170 196 354 200 198 187 192 467 196 l217 3 0 375 0
374 -265 0 -265 0 0 -168 c0 -129 -4 -180 -16 -218 -15 -43 -52 -84 -307 -341
l-289 -291 18 -49 c57 -147 -15 -322 -164 -394 -71 -34 -188 -33 -259 4 -207
107 -240 363 -67 515 61 54 126 75 217 70 40 -2 86 -11 103 -19 l32 -16 275
276 c152 152 281 289 287 304 5 16 10 96 10 178 l0 149 -265 0 -265 0 0 -206z"/>
<path d="M4148 4003 l-3 -408 -23 -33 c-45 -63 -62 -66 -324 -72 l-238 -5
-131 -130 c-72 -71 -137 -142 -145 -157 -9 -18 -14 -59 -14 -126 0 -165 -8
-182 -179 -353 -122 -122 -154 -149 -195 -163 -44 -14 -122 -16 -680 -16
l-631 0 2 -262 2 -263 283 -3 c156 -2 303 0 327 3 37 6 56 18 118 76 115 109
126 113 387 115 l218 2 25 48 c55 109 157 174 274 174 89 0 149 -23 213 -81
72 -66 101 -130 100 -229 0 -91 -26 -152 -92 -218 -64 -65 -120 -87 -217 -86
-66 0 -89 5 -131 26 -63 33 -129 100 -152 155 l-17 43 -203 0 c-132 0 -211 -4
-225 -11 -12 -7 -49 -37 -82 -69 -114 -108 -98 -105 -490 -108 l-340 -3 5
-114 c6 -125 15 -148 80 -192 l33 -23 1143 0 1144 0 0 244 c0 150 -4 256 -11
273 -6 15 -46 64 -89 109 -49 50 -89 102 -105 135 -23 51 -25 64 -25 216 l0
162 -56 28 c-61 30 -111 80 -146 145 -33 62 -33 204 0 266 35 66 88 119 150
149 77 37 182 39 257 3 109 -53 185 -169 185 -285 0 -116 -79 -238 -182 -281
l-48 -19 0 -142 c0 -78 5 -154 11 -169 5 -16 50 -69 98 -119 122 -126 121
-123 121 -453 l0 -264 114 4 c127 3 149 12 194 78 l22 33 0 1332 0 1332 -22
33 c-45 66 -67 75 -193 78 l-114 4 -3 -409z"/>
<path d="M879 3927 c-161 -85 -161 -319 0 -404 42 -22 53 -23 258 -23 l213 0
0 225 0 225 -213 0 c-205 0 -216 -1 -258 -23z"/>
<path d="M4710 3724 l0 -225 218 3 c247 3 270 9 329 86 84 111 48 273 -76 339
-42 22 -53 23 -258 23 l-213 0 0 -226z"/>
<path d="M2510 3362 c-47 -23 -80 -75 -80 -124 0 -88 58 -148 144 -148 89 0
146 54 146 140 0 113 -111 182 -210 132z"/>
<path d="M918 3188 c-47 -13 -113 -70 -139 -121 -28 -54 -28 -140 0 -194 27
-54 92 -108 146 -122 24 -6 129 -11 234 -11 l191 0 0 230 0 230 -197 -1 c-109
-1 -214 -5 -235 -11z"/>
<path d="M4710 2970 l0 -230 191 0 c105 0 210 5 234 11 95 24 167 119 167 219
0 100 -72 195 -167 219 -24 6 -129 11 -234 11 l-191 0 0 -230z"/>
<path d="M3759 3087 c-39 -26 -69 -79 -69 -122 0 -110 133 -183 228 -125 34
21 72 87 72 125 0 38 -38 104 -72 125 -46 28 -115 27 -159 -3z"/>
<path d="M905 2428 c-183 -64 -199 -323 -26 -415 42 -22 53 -23 258 -23 l213
0 0 225 0 225 -207 -1 c-117 0 -221 -5 -238 -11z"/>
<path d="M4710 2216 l0 -226 213 0 c205 0 216 1 258 23 124 66 160 228 76 339
-59 77 -82 83 -329 86 l-218 3 0 -225z"/>
<path d="M3160 2252 c-72 -36 -100 -122 -64 -198 47 -98 209 -100 260 -3 24
46 15 131 -17 165 -52 55 -115 68 -179 36z"/>
<path d="M2050 1077 c0 -205 1 -216 23 -258 85 -161 319 -161 404 0 22 42 23
53 23 258 l0 213 -225 0 -225 0 0 -213z"/>
<path d="M2800 1099 c0 -105 5 -210 11 -234 24 -95 119 -167 219 -167 100 0
195 72 219 167 6 24 11 129 11 234 l0 191 -230 0 -230 0 0 -191z"/>
<path d="M3562 1073 c3 -248 9 -271 86 -330 111 -84 273 -48 339 76 22 42 23
53 23 258 l0 213 -226 0 -225 0 3 -217z"/>
</g>
</svg>
